<?xml version="1.0" encoding="utf-8"?>
<svg width="321px" height="66px" viewBox="0 0 321 66" version="1.1" xmlns:xlink="http://www.w3.org/1999/xlink" xmlns="http://www.w3.org/2000/svg">
  <defs>
    <path d="M0 0L66 0L66 66L0 66L0 0Z" id="path_1" />
    <clipPath id="mask_1">
      <use xlink:href="#path_1" />
    </clipPath>
  </defs>
  <g id="Group">
    <g id="Cream-Candy" fill="#FFFFFF" transform="translate(82 0)">
      <path d="M31.7695 21.7266Q31.9688 20.8359 31.9688 20.2031Q31.9688 19.0313 31.582 18.2227Q31.1953 17.4141 30.5273 16.9219Q29.8594 16.4297 28.9688 16.207Q28.0781 15.9844 27.0938 15.9844Q25.1016 15.9844 23.0391 16.7344Q20.9766 17.4844 18.9375 18.7969Q16.8984 20.1094 14.9531 21.8906Q13.0078 23.6719 11.2852 25.7461Q9.5625 27.8203 8.12109 30.0938Q6.67969 32.3672 5.63672 34.6406Q4.59375 36.9141 4.00781 39.1172Q3.42188 41.3203 3.42188 43.2422Q3.42188 44.7891 3.87891 46.0898Q4.33594 47.3906 5.32031 48.3281Q6.30469 49.2656 7.85156 49.793Q9.39844 50.3203 11.5781 50.3203Q13.4297 50.3203 15.9258 49.5234Q18.4219 48.7266 20.0039 47.9063Q21.5859 47.0859 22.9453 46.1016Q24.3047 45.1172 25.3594 44.2031Q26.4141 43.2891 27.1172 42.5625Q27.2143 42.4622 27.3027 42.3701Q26.9368 43.1473 26.625 43.8164Q26.0625 45.0234 25.6289 45.9609Q25.1953 46.8984 24.7734 47.6953Q24.5156 48.1641 24.4336 48.5508Q24.3516 48.9375 24.3516 49.1953Q24.3516 49.8281 24.668 50.1094Q24.9844 50.3906 25.5234 50.3906Q25.9922 50.3906 26.5547 50.1797Q27.1172 49.9688 27.6563 49.5938Q28.1953 49.2188 28.6523 48.6797Q29.1094 48.1406 29.3906 47.4609Q29.7422 46.6875 30.2344 45.6094Q30.7266 44.5313 31.2539 43.4297Q31.7813 42.3281 32.2734 41.3203Q32.7656 40.3125 33.1406 39.6563Q33.4219 39.1406 34.0781 38.6836Q34.7344 38.2266 35.4609 37.875Q36.1875 37.5234 36.832 37.3125Q37.4766 37.1016 37.7578 37.1016Q37.9219 37.1016 37.9688 37.2188Q38.0156 37.3359 38.0156 37.4531Q38.0156 37.9453 37.6875 38.5313Q37.3594 39.1172 36.8555 39.8086Q36.3516 40.5 35.7422 41.2852Q35.1328 42.0703 34.5703 42.9375Q34.0078 43.8047 33.5625 44.7656Q33.1172 45.7266 32.9531 46.7578Q32.9297 46.8516 32.9297 47.0391Q32.9297 48.2578 33.7383 49.0313Q34.5469 49.8047 36.1641 49.8047Q36.8438 49.8047 37.7695 49.4883Q38.6953 49.1719 39.75 48.6563Q40.8047 48.1406 41.9414 47.4844Q43.0781 46.8281 44.1914 46.1367Q44.6026 45.8813 45.0008 45.6325Q45.0795 45.9651 45.1875 46.2891Q45.5859 47.4844 46.3477 48.3984Q47.1094 49.3125 48.1992 49.8516Q49.2891 50.3906 50.6953 50.3906Q52.3359 50.3906 54.0234 49.957Q55.7109 49.5234 57.2695 48.8672Q58.8281 48.2109 60.2227 47.4258Q61.2497 46.8475 62.0923 46.3138Q62.1837 47.2115 62.5547 47.8828Q63.0469 48.7734 63.7734 49.3359Q64.5 49.8984 65.3086 50.1445Q66.1172 50.3906 66.7266 50.3906Q67.9219 50.3906 69.082 49.8398Q70.2422 49.2891 71.3086 48.4336Q72.375 47.5781 73.3008 46.5352Q74.2266 45.4922 74.9531 44.5078Q74.7891 44.9297 74.7188 45.4102Q74.6484 45.8906 74.6484 46.3828Q74.6484 47.1328 74.8359 47.8477Q75.0234 48.5625 75.4102 49.125Q75.7969 49.6875 76.3828 50.0391Q76.9688 50.3906 77.7891 50.3906Q78.7031 50.3906 79.7344 49.957Q80.7656 49.5234 81.832 48.8438Q82.8984 48.1641 83.918 47.332Q84.2842 47.0331 84.6356 46.7355Q84.5332 47.0165 84.4453 47.2734Q84.1406 48.1641 84.1406 48.5859Q84.1406 49.3359 84.6328 49.875Q85.125 50.4141 85.9688 50.4141Q86.7422 50.4141 87.2578 49.8867Q87.7734 49.3594 88.1836 48.5859Q88.5938 47.8125 88.9453 46.8984Q89.2969 45.9844 89.7188 45.2109Q90.1875 44.4609 90.75 43.5469Q91.3125 42.6328 91.957 41.707Q92.6016 40.7813 93.3398 39.9141Q94.0781 39.0469 94.8984 38.3789Q95.7188 37.7109 96.6094 37.3008Q97.5 36.8906 98.4609 36.8906Q98.8594 36.8906 99.0703 37.1367Q99.2813 37.3828 99.2813 37.7578Q99.2813 38.1094 99.1406 38.4492Q99 38.7891 98.7656 39.1641Q97.9453 40.5 97.0313 41.7773Q96.1172 43.0547 95.3438 44.2969Q94.5703 45.5391 94.0664 46.7109Q93.5625 47.8828 93.5625 49.0078Q93.5859 49.3125 93.7617 49.5703Q93.9375 49.8281 94.207 50.0156Q94.4766 50.2031 94.8047 50.3086Q95.1328 50.4141 95.4141 50.4141Q96.1875 50.4141 96.7031 49.8867Q97.2188 49.3594 97.6289 48.5859Q98.0391 47.8125 98.3906 46.8984Q98.7422 45.9844 99.1641 45.2109Q99.6328 44.4609 100.195 43.5469Q100.758 42.6328 101.402 41.707Q102.047 40.7813 102.785 39.9141Q103.523 39.0469 104.344 38.3789Q105.164 37.7109 106.055 37.3008Q106.945 36.8906 107.906 36.8906Q108.305 36.8906 108.516 37.1367Q108.727 37.3828 108.727 37.7578Q108.727 38.1094 108.586 38.4492Q108.445 38.7891 108.211 39.1641Q107.672 40.0547 106.945 40.9453Q106.219 41.8359 105.563 42.7852Q104.906 43.7344 104.461 44.7656Q104.016 45.7969 104.016 46.9688Q104.016 48.75 105.082 49.5703Q106.148 50.3906 107.883 50.3906Q109.219 50.3906 110.566 49.875Q111.914 49.3594 113.262 48.5039Q114.609 47.6484 115.934 46.5352Q117.258 45.4219 118.523 44.2031Q119.203 43.6641 119.484 43.1016Q119.766 42.5391 119.766 42.0703Q119.766 41.4609 119.426 41.0859Q119.086 40.7109 118.664 40.7109Q118.477 40.7109 118.289 40.7813Q118.102 40.8516 117.961 41.0156Q117.398 41.625 116.449 42.5273Q115.5 43.4297 114.41 44.2617Q113.32 45.0938 112.172 45.6797Q111.023 46.2656 110.039 46.2656Q109.523 46.2656 109.207 46.125Q108.891 45.9844 108.891 45.4688Q108.891 44.9063 109.219 44.2617Q109.547 43.6172 109.992 43.0078Q110.438 42.3984 110.906 41.8594Q111.375 41.3203 111.656 40.9688Q112.523 39.9141 113.168 38.6484Q113.813 37.3828 113.813 35.9766Q113.813 35.0859 113.496 34.4766Q113.18 33.8672 112.629 33.4805Q112.078 33.0938 111.375 32.9297Q110.672 32.7656 109.898 32.7656Q108.844 32.7656 107.977 33.0234Q107.109 33.2813 106.371 33.7031Q105.633 34.125 105 34.6523Q104.367 35.1797 103.828 35.7188Q103.781 34.9219 103.488 34.3594Q103.195 33.7969 102.738 33.4453Q102.281 33.0938 101.695 32.9297Q101.109 32.7656 100.453 32.7656Q99.1406 32.7656 98.0859 33.1406Q97.0313 33.5156 96.1758 34.0898Q95.3203 34.6641 94.5938 35.3438Q93.8672 36.0234 93.2344 36.6094Q93.5156 35.8828 93.5156 35.2734Q93.5156 34.4531 93.0586 34.0195Q92.6016 33.5859 92.0156 33.5859Q91.3359 33.5859 90.6445 34.0781Q89.9531 34.5703 89.5313 35.5781Q89.1797 36.3984 88.6523 37.5586Q88.125 38.7188 87.5273 40.0313Q87.3567 40.4061 87.1842 40.7846Q85.7095 42.2825 84.3984 43.4531Q83.8359 43.9453 83.2383 44.4258Q82.6406 44.9063 82.0781 45.2813Q81.5156 45.6563 81.0352 45.8789Q80.5547 46.1016 80.2031 46.1016Q79.6406 46.1016 79.4063 45.6445Q79.1719 45.1875 79.1719 44.4844Q79.1719 43.9453 79.3359 43.1836Q79.5 42.4219 79.7578 41.5547Q80.0156 40.6875 80.332 39.7852Q80.6484 38.8828 80.9531 38.0508Q81.2578 37.2188 81.5039 36.5391Q81.75 35.8594 81.8672 35.4141Q81.8906 35.3203 81.8906 35.1563Q81.8906 34.5703 81.3281 34.0781Q80.7656 33.5859 79.875 33.5859Q79.5938 33.5859 79.207 33.7148Q78.8203 33.8438 78.4688 34.0078Q78.0469 34.1953 77.6484 34.4063Q77.1797 33.9609 76.5703 33.5859Q76.0313 33.2813 75.2578 33.0234Q74.4844 32.7656 73.4531 32.7656Q71.4609 32.7656 69.8438 33.457Q68.2266 34.1484 66.9609 35.2617Q65.6953 36.375 64.7695 37.7813Q63.8438 39.1875 63.2461 40.6289Q62.7993 41.7065 62.5228 42.725Q62.0647 42.9915 61.4883 43.3125Q60.5625 43.8281 59.4141 44.4023Q58.2656 44.9766 57.0586 45.4688Q55.8516 45.9609 54.6211 46.2773Q53.3906 46.5938 52.3125 46.5938Q51.3047 46.5938 50.6953 46.207Q50.0859 45.8203 49.9688 45.1406Q53.1563 43.9688 55.2773 42.8086Q57.3984 41.6484 58.6641 40.5352Q59.9297 39.4219 60.4453 38.3438Q60.9609 37.2656 60.9609 36.2813Q60.9609 34.6172 60 33.6797Q59.0391 32.7422 57.0938 32.7422Q55.2422 32.7422 53.6133 33.2813Q51.9844 33.8203 50.625 34.7109Q49.2656 35.6016 48.1758 36.7617Q47.0859 37.9219 46.3359 39.1406Q45.5859 40.3594 45.1875 41.5664Q45.1051 41.816 45.0397 42.0571Q44.0835 42.5716 43.0547 43.1016Q41.5078 43.8984 39.9492 44.6602Q38.3906 45.4219 37.125 45.9609Q36.9375 45.9609 36.9141 45.8906Q36.8906 45.8203 36.8906 45.6328Q36.8906 45.4219 37.3945 44.8594Q37.8984 44.2969 38.6602 43.5352L40.3242 41.8711Q41.2266 40.9688 42.0117 40.0781Q42.7969 39.1875 43.3828 38.3672Q43.9688 37.5469 44.0859 36.9375Q44.1563 36.6094 44.1797 36.3164Q44.2031 36.0234 44.2031 35.7656Q44.2031 34.5703 43.6289 34.0664Q43.0547 33.5625 42 33.5625Q41.3438 33.5625 40.5117 33.7617Q39.6797 33.9609 38.7656 34.3008Q37.8516 34.6406 36.8789 35.1094Q35.9063 35.5781 34.9922 36.1406L34.9453 36.1641L34.9219 36.1641Q34.8984 36.1641 34.8984 36.1172Q34.8984 36.0469 34.9453 35.9297Q34.9922 35.8125 35.0508 35.6719Q35.1094 35.5313 35.1563 35.4141Q35.2031 35.2969 35.2031 35.2266Q35.2031 34.8281 34.8984 34.5234Q34.5938 34.2188 34.1133 34.0078Q33.6328 33.7969 33.0234 33.6914Q32.4141 33.5859 31.8047 33.5859Q31.2188 33.5859 30.6914 33.7148Q30.1641 33.8438 29.7656 34.1016Q29.3672 34.3594 29.1328 34.7695Q28.8984 35.1797 28.8984 35.7422Q28.8984 36.3516 29.1211 36.7617Q29.3438 37.1719 29.6719 37.4531Q29.2361 38.3348 28.8508 39.1264Q28.8419 38.4648 28.7227 37.9336Q28.5938 37.3594 28.2422 37.3594Q28.0781 37.3594 27.9609 37.4531Q27.3281 37.7344 26.3438 38.4258Q25.3594 39.1172 24.1641 39.9727Q22.9687 40.8281 21.6445 41.7539Q20.3203 42.6797 19.0195 43.4414Q17.7188 44.2031 15.7734 44.9648Q13.8281 45.7266 12.8438 45.7266Q10.7344 45.7266 9.82031 44.6953Q8.90625 43.6641 8.90625 41.9531Q8.90625 40.5703 9.41016 38.8711Q9.91406 37.1719 10.793 35.332Q11.6719 33.4922 12.8555 31.6055Q14.0391 29.7188 15.375 27.9727Q16.7109 26.2266 18.1406 24.6914Q19.5703 23.1563 20.9531 22.0078Q22.3359 20.8594 23.6016 20.2031Q24.8672 19.5469 25.875 19.5469Q26.6484 19.5469 26.9648 19.957Q27.2813 20.3672 27.2813 21.0469Q27.2813 21.5859 27.0117 22.2656Q26.7422 22.9453 26.3438 23.6484Q25.9453 24.3516 25.4531 24.9961Q24.9609 25.6406 24.5391 26.1094Q24.1406 26.6016 23.9883 26.9766Q23.8359 27.3516 23.8359 27.6328Q23.8359 28.0547 24.082 28.3125Q24.3281 28.5703 24.668 28.6992Q25.0078 28.8281 25.3477 28.8633Q25.6875 28.8984 25.8984 28.8984Q26.8125 28.8984 27.6094 28.4297Q28.4063 27.9609 29.0859 27.1992Q29.7656 26.4375 30.293 25.4883Q30.8203 24.5391 31.1953 23.5781Q31.5703 22.6172 31.7695 21.7266ZM157.441 21.7266Q157.641 20.8359 157.641 20.2031Q157.641 19.0313 157.254 18.2227Q156.867 17.4141 156.199 16.9219Q155.531 16.4297 154.641 16.207Q153.75 15.9844 152.766 15.9844Q150.773 15.9844 148.711 16.7344Q146.648 17.4844 144.609 18.7969Q142.57 20.1094 140.625 21.8906Q138.68 23.6719 136.957 25.7461Q135.234 27.8203 133.793 30.0938Q132.352 32.3672 131.309 34.6406Q130.266 36.9141 129.68 39.1172Q129.094 41.3203 129.094 43.2422Q129.094 44.7891 129.551 46.0898Q130.008 47.3906 130.992 48.3281Q131.977 49.2656 133.523 49.793Q135.07 50.3203 137.25 50.3203Q139.102 50.3203 141.598 49.5234Q144.094 48.7266 145.676 47.9063Q147.258 47.0859 148.617 46.1016Q149.977 45.1172 151.031 44.2031Q151.404 43.8805 151.732 43.5811Q151.477 44.8057 151.477 45.7031Q151.477 46.9922 151.969 47.8828Q152.461 48.7734 153.188 49.3359Q153.914 49.8984 154.723 50.1445Q155.531 50.3906 156.141 50.3906Q157.336 50.3906 158.496 49.8398Q159.656 49.2891 160.723 48.4336Q161.789 47.5781 162.715 46.5352Q163.641 45.4922 164.367 44.5078Q164.203 44.9297 164.133 45.4102Q164.063 45.8906 164.063 46.3828Q164.063 47.1328 164.25 47.8477Q164.438 48.5625 164.824 49.125Q165.211 49.6875 165.797 50.0391Q166.383 50.3906 167.203 50.3906Q168.117 50.3906 169.148 49.957Q170.18 49.5234 171.246 48.8438Q172.313 48.1641 173.332 47.332Q173.688 47.0415 174.029 46.7527Q173.912 47.0497 173.813 47.3203Q173.484 48.2109 173.484 48.6094Q173.484 49.3594 173.953 49.875Q174.422 50.3906 175.242 50.3906Q176.039 50.3906 176.566 49.8867Q177.094 49.3828 177.516 48.6211Q177.938 47.8594 178.324 46.9805Q178.711 46.1016 179.18 45.3281Q179.93 44.1797 180.914 42.7266Q181.898 41.2734 183.07 39.9727Q184.242 38.6719 185.59 37.7813Q186.938 36.8906 188.438 36.8906Q188.836 36.8906 189.035 37.1367Q189.234 37.3828 189.234 37.7344Q189.234 38.1328 188.93 38.7656Q188.625 39.3984 188.168 40.207Q187.711 41.0156 187.172 41.918Q186.633 42.8203 186.152 43.7344Q185.672 44.6484 185.332 45.5156Q184.992 46.3828 184.945 47.1094Q184.922 47.2969 184.91 47.4492Q184.898 47.6016 184.898 47.7656Q184.898 49.0078 185.473 49.6992Q186.047 50.3906 187.289 50.3906Q187.711 50.3906 188.215 50.2969Q188.719 50.2031 189.328 50.0156Q191.109 49.5 192.434 48.9023Q193.758 48.3047 194.918 47.6133Q195.796 47.09 196.647 46.5062Q196.685 47.4179 196.934 48.0938Q197.227 48.8906 197.754 49.4063Q198.281 49.9219 199.008 50.1563Q199.734 50.3906 200.602 50.3906Q201.609 50.3906 202.688 50.0742Q203.766 49.7578 204.773 49.1836Q205.781 48.6094 206.625 47.8008Q207.469 46.9922 208.008 46.0078Q207.984 46.125 207.984 46.2539L207.984 46.5Q207.984 48.4453 208.969 49.418Q209.953 50.3906 211.664 50.3906Q213.07 50.3906 214.535 49.7344Q216 49.0781 217.477 47.9883Q217.746 47.7897 218.014 47.5806Q217.875 48.2381 217.875 48.8203Q217.875 49.6641 218.438 50.0273Q219 50.3906 219.797 50.3906Q222.281 50.3906 225.141 48.1875Q228 45.9844 231.516 41.8125L226.828 51.3047Q225.281 53.25 224.262 54.6914Q223.242 56.1328 222.621 57.3047Q222 58.4766 221.754 59.4492Q221.508 60.4219 221.508 61.4063Q221.508 62.4609 222.094 63.082Q222.68 63.7031 223.617 63.7031Q225.891 63.7031 227.789 59.7656Q227.813 59.7188 228.094 59.1094Q228.375 58.5 228.809 57.5156Q229.242 56.5313 229.77 55.2422Q230.297 53.9531 230.836 52.5469Q231.563 51.8672 232.184 51.3633Q232.805 50.8594 233.449 50.4141Q234.094 49.9688 234.82 49.5469Q235.547 49.125 236.484 48.6094Q237.422 48.0938 238.641 47.4492Q239.859 46.8047 241.5 45.8906Q242.648 45.2578 243.105 44.5781Q243.563 43.8984 243.563 43.2891Q243.563 42.6094 243.117 42.1641Q242.672 41.7188 242.086 41.7188Q241.945 41.7188 240.973 42.1172Q240 42.5156 238.652 43.1602Q237.305 43.8047 235.84 44.6133Q234.375 45.4219 233.25 46.2656L238.5 35.3203Q238.617 35.0391 238.617 34.7109Q238.617 34.3125 238.406 33.9492Q238.195 33.5859 237.703 33.5859Q237.422 33.5859 237.152 33.6094Q236.883 33.6328 236.555 33.7617Q236.227 33.8906 235.77 34.1602Q235.313 34.4297 234.656 34.9453L224.977 44.4609Q224.625 44.7891 224.227 45.0469Q223.828 45.3047 223.57 45.3047Q223.289 45.3047 223.289 44.9531Q223.289 44.5547 223.617 43.875L227.906 34.9453Q228 34.7344 228 34.4531Q228 33.8906 227.496 33.5508Q226.992 33.2109 226.266 33.2109Q225.563 33.2109 224.813 33.6211Q224.063 34.0313 223.594 34.9453Q222.914 36.6563 222.363 37.9336Q221.813 39.2109 221.355 40.1836Q221.03 40.8754 220.741 41.4665Q219.744 42.4562 218.578 43.4063Q217.313 44.4375 215.941 45.3047Q214.57 46.1719 213.234 46.5703Q213.141 46.6172 212.953 46.6172Q212.484 46.6172 212.273 46.1602Q212.063 45.7031 212.063 45.2813Q212.086 45.2344 212.086 45.1641Q212.086 45.0938 212.109 45.0469Q212.977 42.9141 214.125 40.2656Q215.273 37.6172 216.539 34.8281Q217.805 32.0391 219.094 29.2852Q220.383 26.5313 221.555 24.1875Q221.695 23.8125 221.871 23.3789Q222.047 22.9453 222.199 22.5Q222.352 22.0547 222.469 21.5859Q222.586 21.1172 222.586 20.6719Q222.586 19.5703 222 19.1836Q221.414 18.7969 220.523 18.7969Q219.867 18.7969 219.352 19.043Q218.836 19.2891 218.449 19.6992Q218.063 20.1094 217.781 20.6602Q217.5 21.2109 217.336 21.7969Q217.266 22.0078 216.961 22.7695L216.234 24.5859Q215.813 25.6406 215.309 26.8359Q214.805 28.0313 214.371 29.0742Q213.938 30.1172 213.609 30.8906Q213.281 31.6641 213.211 31.875Q213.141 32.0625 212.953 32.4727Q212.766 32.8828 212.531 33.4453Q212.438 33.6328 212.344 33.8438Q211.945 33.4453 211.477 33.2109Q210.516 32.7656 209.18 32.7656Q208.031 32.7656 206.648 33.2109Q205.266 33.6563 203.871 34.4883Q202.477 35.3203 201.176 36.5039Q199.875 37.6875 198.867 39.1758Q197.859 40.6641 197.25 42.4336Q197.239 42.4652 197.229 42.4955Q196.656 42.8982 196.031 43.3008Q194.813 44.0859 193.488 44.7891Q192.164 45.4922 190.898 45.9609Q190.594 46.1719 190.383 46.207Q190.172 46.2422 190.008 46.2422Q189.75 46.2422 189.633 46.1016Q189.516 45.9609 189.516 45.7734Q189.516 45.2813 189.82 44.9063Q190.055 44.4844 190.465 43.8398L191.367 42.4219Q191.859 41.6484 192.363 40.7695Q192.867 39.8906 193.277 38.9766Q193.688 38.0625 193.945 37.1484Q194.203 36.2344 194.203 35.3906Q194.203 33.9609 193.371 33.3633Q192.539 32.7656 191.297 32.7656Q190.195 32.7656 188.965 33.1172Q187.734 33.4688 186.574 34.0195Q185.414 34.5703 184.453 35.2617Q183.492 35.9531 182.977 36.6094Q183.164 36.2109 183.234 35.8594Q183.305 35.5078 183.305 35.2031Q183.305 34.4063 182.859 33.9961Q182.414 33.5859 181.852 33.5859Q181.172 33.5859 180.469 34.0781Q179.766 34.5703 179.297 35.5781Q178.922 36.3984 178.336 37.5703Q177.75 38.7422 177.105 40.0664Q176.971 40.3417 176.837 40.6186Q176.721 40.6845 176.602 40.7813Q175.125 42.2813 173.813 43.4531Q173.25 43.9453 172.652 44.4258Q172.055 44.9063 171.492 45.2813Q170.93 45.6563 170.449 45.8789Q169.969 46.1016 169.617 46.1016Q169.055 46.1016 168.82 45.6445Q168.586 45.1875 168.586 44.4844Q168.586 43.9453 168.75 43.1836Q168.914 42.4219 169.172 41.5547Q169.43 40.6875 169.746 39.7852Q170.063 38.8828 170.367 38.0508Q170.672 37.2188 170.918 36.5391Q171.164 35.8594 171.281 35.4141Q171.305 35.3203 171.305 35.1563Q171.305 34.5703 170.742 34.0781Q170.18 33.5859 169.289 33.5859Q169.008 33.5859 168.621 33.7148Q168.234 33.8438 167.883 34.0078Q167.461 34.1953 167.063 34.4063Q166.594 33.9609 165.984 33.5859Q165.445 33.2813 164.672 33.0234Q163.898 32.7656 162.867 32.7656Q160.875 32.7656 159.258 33.457Q157.641 34.1484 156.375 35.2617Q155.181 36.3124 154.289 37.624Q154.153 37.3594 153.914 37.3594Q153.75 37.3594 153.633 37.4531Q153 37.7344 152.016 38.4258Q151.031 39.1172 149.836 39.9727Q148.641 40.8281 147.316 41.7539Q145.992 42.6797 144.691 43.4414Q143.391 44.2031 141.445 44.9648Q139.5 45.7266 138.516 45.7266Q136.406 45.7266 135.492 44.6953Q134.578 43.6641 134.578 41.9531Q134.578 40.5703 135.082 38.8711Q135.586 37.1719 136.465 35.332Q137.344 33.4922 138.527 31.6055Q139.711 29.7188 141.047 27.9727Q142.383 26.2266 143.813 24.6914Q145.242 23.1563 146.625 22.0078Q148.008 20.8594 149.273 20.2031Q150.539 19.5469 151.547 19.5469Q152.32 19.5469 152.637 19.957Q152.953 20.3672 152.953 21.0469Q152.953 21.5859 152.684 22.2656Q152.414 22.9453 152.016 23.6484Q151.617 24.3516 151.125 24.9961Q150.633 25.6406 150.211 26.1094Q149.813 26.6016 149.66 26.9766Q149.508 27.3516 149.508 27.6328Q149.508 28.0547 149.754 28.3125Q150 28.5703 150.34 28.6992Q150.68 28.8281 151.02 28.8633Q151.359 28.8984 151.57 28.8984Q152.484 28.8984 153.281 28.4297Q154.078 27.9609 154.758 27.1992Q155.438 26.4375 155.965 25.4883Q156.492 24.5391 156.867 23.5781Q157.242 22.6172 157.441 21.7266ZM211.406 35.8828Q210 35.9297 208.453 36.4922Q206.672 37.1016 205.195 38.3086Q203.719 39.5156 202.699 41.2734Q201.68 43.0313 201.539 45.3047Q201.539 46.2422 202.336 46.2422Q203.32 46.2422 204.211 45.832Q205.102 45.4219 205.91 44.7305Q206.719 44.0391 207.422 43.1484Q208.125 42.2578 208.723 41.2969Q209.32 40.3359 209.801 39.3867Q210.281 38.4375 210.633 37.6172Q210.75 37.3594 210.961 36.8906Q211.148 36.4453 211.406 35.8828ZM49.6172 42.4453Q49.6538 42.3295 49.699 42.1995L49.6992 42.1992Q50.1228 41.5585 50.1538 41.0485Q50.3856 40.5283 50.6953 39.9727Q51.0938 39.2578 51.5977 38.5313Q52.1016 37.8047 52.7461 37.2305Q53.3906 36.6563 54.1641 36.3047Q54.9375 35.9531 55.8281 35.9531L56.0391 35.9531Q56.1328 35.9531 56.25 35.9766Q56.5313 36.0234 56.7539 36.2344Q56.9766 36.4453 56.9766 36.7969Q56.9766 37.2188 56.5781 37.793Q56.1797 38.3672 55.125 39.0234Q54.8906 39.1641 54.3164 39.5625Q53.7422 39.9609 52.9688 40.4531Q52.1953 40.9453 51.3164 41.4844Q50.4375 42.0234 49.6172 42.4453ZM70.1953 37.5703Q71.2266 37.0078 72.3281 37.0078Q72.7031 37.0078 73.207 37.1367Q73.7109 37.2656 74.1563 37.5234Q74.6016 37.7813 74.9063 38.1445Q75.2109 38.5078 75.2109 38.9531Q75.2109 39.2578 74.8594 39.9141Q74.5078 40.5703 73.9453 41.3906Q73.3828 42.2109 72.6797 43.0664Q71.9766 43.9219 71.2383 44.6367Q70.5 45.3516 69.8086 45.8086Q69.1172 46.2656 68.6016 46.2656Q67.9453 46.2656 67.5586 45.9844Q67.1719 45.7031 66.9609 45.2813Q66.75 44.8594 66.6914 44.3555Q66.6328 43.8516 66.6328 43.3828Q66.6328 42.2344 67.1016 41.0977Q67.5703 39.9609 68.3672 39.0469Q69.1641 38.1328 70.1953 37.5703ZM161.742 37.0078Q160.641 37.0078 159.609 37.5703Q158.578 38.1328 157.781 39.0469Q156.984 39.9609 156.516 41.0977Q156.047 42.2344 156.047 43.3828Q156.047 43.8516 156.105 44.3555Q156.164 44.8594 156.375 45.2813Q156.586 45.7031 156.973 45.9844Q157.359 46.2656 158.016 46.2656Q158.531 46.2656 159.223 45.8086Q159.914 45.3516 160.652 44.6367Q161.391 43.9219 162.094 43.0664Q162.797 42.2109 163.359 41.3906Q163.922 40.5703 164.273 39.9141Q164.625 39.2578 164.625 38.9531Q164.625 38.5078 164.32 38.1445Q164.016 37.7813 163.57 37.5234Q163.125 37.2656 162.621 37.1367Q162.117 37.0078 161.742 37.0078Z" />
    </g>
    <g id="svg">
      <path d="M0 0L66 0L66 66L0 66L0 0Z" id="Background" fill="none" fill-rule="evenodd" stroke="none" />
      <g clip-path="url(#mask_1)">
        <g id="Group" transform="translate(5.5 5.5)">
          <path d="M27.5164 0C24.5794 0 22.6764 1.9635 21.6589 3.575C20.7301 5.04269 20.1593 6.70813 19.9924 8.437C19.8549 10.769 20.2124 13.068 21.6589 14.806C23.1714 16.621 25.3549 17.215 27.5164 17.215C29.7329 17.215 31.8999 16.5385 33.3904 14.74C34.8259 13.002 35.2164 10.7195 35.0569 8.404C34.8673 6.70511 34.2957 5.07114 33.3849 3.62451C32.3839 2.0295 30.4864 0 27.5164 0L27.5164 0ZM25.4874 8.756C25.5167 8.4095 25.854 7.392 26.5871 6.5065C27.3423 5.6155 27.9215 5.5 28.2001 5.5C28.4347 5.5 29.0286 5.61 29.8131 6.545C30.5682 7.458 30.9128 8.4865 30.9348 8.789C31.0815 10.351 30.6416 11 30.385 11.231C30.2017 11.396 29.7104 11.715 28.2001 11.715C26.5725 11.715 26.1472 11.396 26.0226 11.286C25.8173 11.099 25.3554 10.461 25.4874 8.756L25.4874 8.756ZM49.5 49.5L49.5 30.25C49.5 25.6936 45.8064 22 41.25 22L13.75 22C9.19365 22 5.5 25.6936 5.5 30.25L5.5 49.5L2.75 49.5C1.23122 49.5 3.93391e-06 50.7312 0 52.25C-3.93391e-06 53.7688 1.23121 55 2.74999 55L52.25 55C53.7688 55 55 53.7688 55 52.25C55 50.7312 53.7688 49.5 52.25 49.5L49.5 49.5L49.5 49.5ZM13.75 27.5L41.25 27.5C42.7688 27.5 44 28.7312 44 30.25L44 34.573L39.2315 38.291C38.7511 38.6648 38.082 38.6782 37.587 38.324L31.4875 33.979C29.1007 32.2797 25.8993 32.2797 23.5125 33.979L17.4075 38.324C16.9125 38.6782 16.2434 38.6648 15.763 38.291L11 34.573L11 30.25C11 28.7312 12.2312 27.5 13.75 27.5L13.75 27.5ZM11 41.547L12.3805 42.625C14.7779 44.4963 18.1198 44.5701 20.5975 42.8065L26.7025 38.4615C27.1799 38.1216 27.8201 38.1216 28.2975 38.4615L34.4025 42.8065C36.879 44.5674 40.2177 44.4936 42.614 42.625L44 41.547L44 49.5L11 49.5L11 41.547L11 41.547Z" id="Shape" fill="#FFFFFF" fill-rule="evenodd" stroke="none" />
        </g>
      </g>
    </g>
  </g>
</svg>